<?xml version="1.0" encoding="utf-8"?> 
 <svg xmlns="http://www.w3.org/2000/svg" version="1.1" width="400" height="400"> 
 <title>LogoHaskell Generator</title> 
<line x1="200.0" y1="200.0" x2="224.6202" y2="204.3412" stroke="red" stroke-width="1" /> 
<line x1="224.6202" y1="204.3412" x2="245.099" y2="190.00179" stroke="red" stroke-width="1" /> 
<line x1="245.099" y1="190.00179" x2="249.4402" y2="165.38159" stroke="red" stroke-width="1" /> 
<line x1="249.4402" y1="165.38159" x2="235.10078" y2="144.90279" stroke="red" stroke-width="1" /> 
<line x1="235.10078" y1="144.90279" x2="210.48059" y2="140.56158" stroke="red" stroke-width="1" /> 
<line x1="210.48059" y1="140.56158" x2="190.0018" y2="154.901" stroke="red" stroke-width="1" /> 
<line x1="190.0018" y1="154.901" x2="185.6606" y2="179.5212" stroke="red" stroke-width="1" /> 
<line x1="185.6606" y1="179.5212" x2="200.00002" y2="199.99998" stroke="red" stroke-width="1" /> 
<line x1="200.00002" y1="199.99998" x2="223.49232" y2="208.55049" stroke="red" stroke-width="1" /> 
<line x1="223.49232" y1="208.55049" x2="246.15002" y2="197.98503" stroke="red" stroke-width="1" /> 
<line x1="246.15002" y1="197.98503" x2="254.70052" y2="174.4927" stroke="red" stroke-width="1" /> 
<line x1="254.70052" y1="174.4927" x2="244.13504" y2="151.83502" stroke="red" stroke-width="1" /> 
<line x1="244.13504" y1="151.83502" x2="220.64273" y2="143.28452" stroke="red" stroke-width="1" /> 
<line x1="220.64273" y1="143.28452" x2="197.98505" y2="153.84998" stroke="red" stroke-width="1" /> 
<line x1="197.98505" y1="153.84998" x2="189.43456" y2="177.3423" stroke="red" stroke-width="1" /> 
<line x1="189.43456" y1="177.3423" x2="200.00002" y2="200.0" stroke="red" stroke-width="1" /> 
<line x1="200.00002" y1="200.0" x2="221.65065" y2="212.49998" stroke="red" stroke-width="1" /> 
<line x1="221.65065" y1="212.49998" x2="245.7988" y2="206.02951" stroke="red" stroke-width="1" /> 
<line x1="245.7988" y1="206.02951" x2="258.29877" y2="184.37886" stroke="red" stroke-width="1" /> 
<line x1="258.29877" y1="184.37886" x2="251.82828" y2="160.23071" stroke="red" stroke-width="1" /> 
<line x1="251.82828" y1="160.23071" x2="230.17763" y2="147.73073" stroke="red" stroke-width="1" /> 
<line x1="230.17763" y1="147.73073" x2="206.02948" y2="154.2012" stroke="red" stroke-width="1" /> 
<line x1="206.02948" y1="154.2012" x2="193.5295" y2="175.85184" stroke="red" stroke-width="1" /> 
<line x1="193.5295" y1="175.85184" x2="199.99998" y2="199.99997" stroke="red" stroke-width="1" /> 
<line x1="199.99998" y1="199.99997" x2="219.1511" y2="216.06966" stroke="red" stroke-width="1" /> 
<line x1="219.1511" y1="216.06966" x2="244.05595" y2="213.89075" stroke="red" stroke-width="1" /> 
<line x1="244.05595" y1="213.89075" x2="260.12564" y2="194.73962" stroke="red" stroke-width="1" /> 
<line x1="260.12564" y1="194.73962" x2="257.94672" y2="169.83476" stroke="red" stroke-width="1" /> 
<line x1="257.94672" y1="169.83476" x2="238.79558" y2="153.7651" stroke="red" stroke-width="1" /> 
<line x1="238.79558" y1="153.7651" x2="213.89072" y2="155.944" stroke="red" stroke-width="1" /> 
<line x1="213.89072" y1="155.944" x2="197.82103" y2="175.09511" stroke="red" stroke-width="1" /> 
<line x1="197.82103" y1="175.09511" x2="199.99998" y2="199.99997" stroke="red" stroke-width="1" /> 
<line x1="199.99998" y1="199.99997" x2="216.0697" y2="219.15105" stroke="red" stroke-width="1" /> 
<line x1="216.0697" y1="219.15105" x2="240.97456" y2="221.32994" stroke="red" stroke-width="1" /> 
<line x1="240.97456" y1="221.32994" x2="260.12567" y2="205.26024" stroke="red" stroke-width="1" /> 
<line x1="260.12567" y1="205.26024" x2="262.3046" y2="180.35538" stroke="red" stroke-width="1" /> 
<line x1="262.3046" y1="180.35538" x2="246.23488" y2="161.20428" stroke="red" stroke-width="1" /> 
<line x1="246.23488" y1="161.20428" x2="221.33" y2="159.02542" stroke="red" stroke-width="1" /> 
<line x1="221.33" y1="159.02542" x2="202.1789" y2="175.09511" stroke="red" stroke-width="1" /> 
<line x1="202.1789" y1="175.09511" x2="200.0" y2="199.99997" stroke="red" stroke-width="1" /> 
<line x1="200.0" y1="199.99997" x2="212.50003" y2="221.65059" stroke="red" stroke-width="1" /> 
<line x1="212.50003" y1="221.65059" x2="236.6482" y2="228.12102" stroke="red" stroke-width="1" /> 
<line x1="236.6482" y1="228.12102" x2="258.29883" y2="215.62102" stroke="red" stroke-width="1" /> 
<line x1="258.29883" y1="215.62102" x2="264.76935" y2="191.47289" stroke="red" stroke-width="1" /> 
<line x1="264.76935" y1="191.47289" x2="252.26933" y2="169.82227" stroke="red" stroke-width="1" /> 
<line x1="252.26933" y1="169.82227" x2="228.12119" y2="163.35178" stroke="red" stroke-width="1" /> 
<line x1="228.12119" y1="163.35178" x2="206.47057" y2="175.8518" stroke="red" stroke-width="1" /> 
<line x1="206.47057" y1="175.8518" x2="200.00009" y2="199.99995" stroke="red" stroke-width="1" /> 
<line x1="200.00009" y1="199.99995" x2="208.55063" y2="223.49226" stroke="red" stroke-width="1" /> 
<line x1="208.55063" y1="223.49226" x2="231.20831" y2="234.05772" stroke="red" stroke-width="1" /> 
<line x1="231.20831" y1="234.05772" x2="254.7006" y2="225.50717" stroke="red" stroke-width="1" /> 
<line x1="254.7006" y1="225.50717" x2="265.26605" y2="202.84947" stroke="red" stroke-width="1" /> 
<line x1="265.26605" y1="202.84947" x2="256.71548" y2="179.35718" stroke="red" stroke-width="1" /> 
<line x1="256.71548" y1="179.35718" x2="234.05779" y2="168.79175" stroke="red" stroke-width="1" /> 
<line x1="234.05779" y1="168.79175" x2="210.56546" y2="177.34224" stroke="red" stroke-width="1" /> 
<line x1="210.56546" y1="177.34224" x2="200.00005" y2="199.99995" stroke="red" stroke-width="1" /> 
<line x1="200.00005" y1="199.99995" x2="204.34132" y2="224.62013" stroke="red" stroke-width="1" /> 
<line x1="204.34132" y1="224.62013" x2="224.82014" y2="238.95952" stroke="red" stroke-width="1" /> 
<line x1="224.82014" y1="238.95952" x2="249.44034" y2="234.61832" stroke="red" stroke-width="1" /> 
<line x1="249.44034" y1="234.61832" x2="263.7798" y2="214.13954" stroke="red" stroke-width="1" /> 
<line x1="263.7798" y1="214.13954" x2="259.43857" y2="189.51935" stroke="red" stroke-width="1" /> 
<line x1="259.43857" y1="189.51935" x2="238.95973" y2="175.18" stroke="red" stroke-width="1" /> 
<line x1="238.95973" y1="175.18" x2="214.33955" y2="179.52132" stroke="red" stroke-width="1" /> 
<line x1="214.33955" y1="179.52132" x2="200.00014" y2="200.0001" stroke="red" stroke-width="1" /> 
<line x1="200.00014" y1="200.0001" x2="200.00015" y2="225.0001" stroke="red" stroke-width="1" /> 
<line x1="200.00015" y1="225.0001" x2="217.67781" y2="242.6778" stroke="red" stroke-width="1" /> 
<line x1="217.67781" y1="242.6778" x2="242.67781" y2="242.67776" stroke="red" stroke-width="1" /> 
<line x1="242.67781" y1="242.67776" x2="260.3554" y2="225.00003" stroke="red" stroke-width="1" /> 
<line x1="260.3554" y1="225.00003" x2="260.35535" y2="200.00003" stroke="red" stroke-width="1" /> 
<line x1="260.35535" y1="200.00003" x2="242.6776" y2="182.32243" stroke="red" stroke-width="1" /> 
<line x1="242.6776" y1="182.32243" x2="217.6776" y2="182.3224" stroke="red" stroke-width="1" /> 
<line x1="217.6776" y1="182.3224" x2="199.99994" y2="200.00009" stroke="red" stroke-width="1" /> 
<line x1="199.99994" y1="200.00009" x2="195.6588" y2="224.6203" stroke="red" stroke-width="1" /> 
<line x1="195.6588" y1="224.6203" x2="209.99823" y2="245.09909" stroke="red" stroke-width="1" /> 
<line x1="209.99823" y1="245.09909" x2="234.61844" y2="249.44022" stroke="red" stroke-width="1" /> 
<line x1="234.61844" y1="249.44022" x2="255.09727" y2="235.10086" stroke="red" stroke-width="1" /> 
<line x1="255.09727" y1="235.10086" x2="259.43848" y2="210.48067" stroke="red" stroke-width="1" /> 
<line x1="259.43848" y1="210.48067" x2="245.09903" y2="190.00189" stroke="red" stroke-width="1" /> 
<line x1="245.09903" y1="190.00189" x2="220.47884" y2="185.6607" stroke="red" stroke-width="1" /> 
<line x1="220.47884" y1="185.6607" x2="200.00008" y2="200.00017" stroke="red" stroke-width="1" /> 
<line x1="200.00008" y1="200.00017" x2="191.44958" y2="223.4925" stroke="red" stroke-width="1" /> 
<line x1="191.44958" y1="223.4925" x2="202.01509" y2="246.15016" stroke="red" stroke-width="1" /> 
<line x1="202.01509" y1="246.15016" x2="225.50745" y2="254.70056" stroke="red" stroke-width="1" /> 
<line x1="225.50745" y1="254.70056" x2="248.16515" y2="244.13512" stroke="red" stroke-width="1" /> 
<line x1="248.16515" y1="244.13512" x2="256.7155" y2="220.64276" stroke="red" stroke-width="1" /> 
<line x1="256.7155" y1="220.64276" x2="246.15005" y2="197.98506" stroke="red" stroke-width="1" /> 
<line x1="246.15005" y1="197.98506" x2="222.65771" y2="189.4346" stroke="red" stroke-width="1" /> 
<line x1="222.65771" y1="189.4346" x2="200.00006" y2="200.00015" stroke="red" stroke-width="1" /> 
<line x1="200.00006" y1="200.00015" x2="187.5001" y2="221.65082" stroke="red" stroke-width="1" /> 
<line x1="187.5001" y1="221.65082" x2="193.97069" y2="245.79893" stroke="red" stroke-width="1" /> 
<line x1="193.97069" y1="245.79893" x2="215.6213" y2="258.29895" stroke="red" stroke-width="1" /> 
<line x1="215.6213" y1="258.29895" x2="239.76944" y2="251.82845" stroke="red" stroke-width="1" /> 
<line x1="239.76944" y1="251.82845" x2="252.26938" y2="230.17776" stroke="red" stroke-width="1" /> 
<line x1="252.26938" y1="230.17776" x2="245.79895" y2="206.0296" stroke="red" stroke-width="1" /> 
<line x1="245.79895" y1="206.0296" x2="224.14832" y2="193.5296" stroke="red" stroke-width="1" /> 
<line x1="224.14832" y1="193.5296" x2="200.00018" y2="200.00014" stroke="red" stroke-width="1" /> 
<line x1="200.00018" y1="200.00014" x2="183.93048" y2="219.15125" stroke="red" stroke-width="1" /> 
<line x1="183.93048" y1="219.15125" x2="186.10942" y2="244.0561" stroke="red" stroke-width="1" /> 
<line x1="186.10942" y1="244.0561" x2="205.26048" y2="260.12585" stroke="red" stroke-width="1" /> 
<line x1="205.26048" y1="260.12585" x2="230.16534" y2="257.947" stroke="red" stroke-width="1" /> 
<line x1="230.16534" y1="257.947" x2="246.23502" y2="238.79587" stroke="red" stroke-width="1" /> 
<line x1="246.23502" y1="238.79587" x2="244.05605" y2="213.891" stroke="red" stroke-width="1" /> 
<line x1="244.05605" y1="213.891" x2="224.90485" y2="197.82143" stroke="red" stroke-width="1" /> 
<line x1="224.90485" y1="197.82143" x2="199.99998" y2="200.00032" stroke="red" stroke-width="1" /> 
<line x1="199.99998" y1="200.00032" x2="180.84895" y2="216.07011" stroke="red" stroke-width="1" /> 
<line x1="180.84895" y1="216.07011" x2="178.67024" y2="240.97499" stroke="red" stroke-width="1" /> 
<line x1="178.67024" y1="240.97499" x2="194.73997" y2="260.12607" stroke="red" stroke-width="1" /> 
<line x1="194.73997" y1="260.12607" x2="219.64485" y2="262.30487" stroke="red" stroke-width="1" /> 
<line x1="219.64485" y1="262.30487" x2="238.79599" y2="246.2352" stroke="red" stroke-width="1" /> 
<line x1="238.79599" y1="246.2352" x2="240.97485" y2="221.33032" stroke="red" stroke-width="1" /> 
<line x1="240.97485" y1="221.33032" x2="224.9051" y2="202.17926" stroke="red" stroke-width="1" /> 
<line x1="224.9051" y1="202.17926" x2="200.00024" y2="200.00032" stroke="red" stroke-width="1" /> 
<line x1="200.00024" y1="200.00032" x2="178.34964" y2="212.50038" stroke="red" stroke-width="1" /> 
<line x1="178.34964" y1="212.50038" x2="171.8791" y2="236.64851" stroke="red" stroke-width="1" /> 
<line x1="171.8791" y1="236.64851" x2="184.3791" y2="258.29916" stroke="red" stroke-width="1" /> 
<line x1="184.3791" y1="258.29916" x2="208.52727" y2="264.7696" stroke="red" stroke-width="1" /> 
<line x1="208.52727" y1="264.7696" x2="230.17786" y2="252.2695" stroke="red" stroke-width="1" /> 
<line x1="230.17786" y1="252.2695" x2="236.64818" y2="228.1213" stroke="red" stroke-width="1" /> 
<line x1="236.64818" y1="228.1213" x2="224.14815" y2="206.47069" stroke="red" stroke-width="1" /> 
<line x1="224.14815" y1="206.47069" x2="199.99998" y2="200.00029" stroke="red" stroke-width="1" /> 
<line x1="199.99998" y1="200.00029" x2="176.50768" y2="208.55081" stroke="red" stroke-width="1" /> 
<line x1="176.50768" y1="208.55081" x2="165.94229" y2="231.20854" stroke="red" stroke-width="1" /> 
<line x1="165.94229" y1="231.20854" x2="174.49292" y2="254.7008" stroke="red" stroke-width="1" /> 
<line x1="174.49292" y1="254.7008" x2="197.1506" y2="265.26627" stroke="red" stroke-width="1" /> 
<line x1="197.1506" y1="265.26627" x2="220.64284" y2="256.71555" stroke="red" stroke-width="1" /> 
<line x1="220.64284" y1="256.71555" x2="231.20819" y2="234.0578" stroke="red" stroke-width="1" /> 
<line x1="231.20819" y1="234.0578" x2="222.65771" y2="210.56548" stroke="red" stroke-width="1" /> 
<line x1="222.65771" y1="210.56548" x2="200.0" y2="200.00005" stroke="red" stroke-width="1" /> 
<line x1="200.0" y1="200.00005" x2="175.37984" y2="204.3414" stroke="red" stroke-width="1" /> 
<line x1="175.37984" y1="204.3414" x2="161.04044" y2="224.82022" stroke="red" stroke-width="1" /> 
<line x1="161.04044" y1="224.82022" x2="165.38153" y2="249.44043" stroke="red" stroke-width="1" /> 
<line x1="165.38153" y1="249.44043" x2="185.86041" y2="263.77972" stroke="red" stroke-width="1" /> 
<line x1="185.86041" y1="263.77972" x2="210.4806" y2="259.43854" stroke="red" stroke-width="1" /> 
<line x1="210.4806" y1="259.43854" x2="224.81998" y2="238.9597" stroke="red" stroke-width="1" /> 
<line x1="224.81998" y1="238.9597" x2="220.47867" y2="214.33952" stroke="red" stroke-width="1" /> 
<line x1="220.47867" y1="214.33952" x2="199.99977" y2="200.00024" stroke="red" stroke-width="1" /> 
<line x1="199.99977" y1="200.00024" x2="174.99977" y2="200.00035" stroke="red" stroke-width="1" /> 
<line x1="174.99977" y1="200.00035" x2="157.32208" y2="217.678" stroke="red" stroke-width="1" /> 
<line x1="157.32208" y1="217.678" x2="157.3223" y2="242.678" stroke="red" stroke-width="1" /> 
<line x1="157.3223" y1="242.678" x2="175.00002" y2="260.35562" stroke="red" stroke-width="1" /> 
<line x1="175.00002" y1="260.35562" x2="200.00002" y2="260.35568" stroke="red" stroke-width="1" /> 
<line x1="200.00002" y1="260.35568" x2="217.67755" y2="242.67789" stroke="red" stroke-width="1" /> 
<line x1="217.67755" y1="242.67789" x2="217.67749" y2="217.67789" stroke="red" stroke-width="1" /> 
<line x1="217.67749" y1="217.67789" x2="199.99988" y2="200.00015" stroke="red" stroke-width="1" /> 
<line x1="199.99988" y1="200.00015" x2="175.37964" y2="195.65918" stroke="red" stroke-width="1" /> 
<line x1="175.37964" y1="195.65918" x2="154.9009" y2="209.99867" stroke="red" stroke-width="1" /> 
<line x1="154.9009" y1="209.99867" x2="150.55966" y2="234.61887" stroke="red" stroke-width="1" /> 
<line x1="150.55966" y1="234.61887" x2="164.8991" y2="255.09766" stroke="red" stroke-width="1" /> 
<line x1="164.8991" y1="255.09766" x2="189.5193" y2="259.43878" stroke="red" stroke-width="1" /> 
<line x1="189.5193" y1="259.43878" x2="209.99803" y2="245.09926" stroke="red" stroke-width="1" /> 
<line x1="209.99803" y1="245.09926" x2="214.33923" y2="220.47906" stroke="red" stroke-width="1" /> 
<line x1="214.33923" y1="220.47906" x2="199.99962" y2="200.0004" stroke="red" stroke-width="1" /> 
<line x1="199.99962" y1="200.0004" x2="176.50731" y2="191.44989" stroke="red" stroke-width="1" /> 
<line x1="176.50731" y1="191.44989" x2="153.84964" y2="202.0154" stroke="red" stroke-width="1" /> 
<line x1="153.84964" y1="202.0154" x2="145.29924" y2="225.50775" stroke="red" stroke-width="1" /> 
<line x1="145.29924" y1="225.50775" x2="155.86484" y2="248.16537" stroke="red" stroke-width="1" /> 
<line x1="155.86484" y1="248.16537" x2="179.35716" y2="256.71585" stroke="red" stroke-width="1" /> 
<line x1="179.35716" y1="256.71585" x2="202.01491" y2="246.1505" stroke="red" stroke-width="1" /> 
<line x1="202.01491" y1="246.1505" x2="210.56528" y2="222.65814" stroke="red" stroke-width="1" /> 
<line x1="210.56528" y1="222.65814" x2="199.99982" y2="200.00044" stroke="red" stroke-width="1" /> 
<line x1="199.99982" y1="200.00044" x2="178.34921" y2="187.5004" stroke="red" stroke-width="1" /> 
<line x1="178.34921" y1="187.5004" x2="154.20111" y2="193.97105" stroke="red" stroke-width="1" /> 
<line x1="154.20111" y1="193.97105" x2="141.70116" y2="215.62172" stroke="red" stroke-width="1" /> 
<line x1="141.70116" y1="215.62172" x2="148.17155" y2="239.76988" stroke="red" stroke-width="1" /> 
<line x1="148.17155" y1="239.76988" x2="169.82227" y2="252.26974" stroke="red" stroke-width="1" /> 
<line x1="169.82227" y1="252.26974" x2="193.9704" y2="245.79924" stroke="red" stroke-width="1" /> 
<line x1="193.9704" y1="245.79924" x2="206.47032" y2="224.14856" stroke="red" stroke-width="1" /> 
<line x1="206.47032" y1="224.14856" x2="199.99971" y2="200.00046" stroke="red" stroke-width="1" /> 
<line x1="199.99971" y1="200.00046" x2="180.84842" y2="183.93097" stroke="red" stroke-width="1" /> 
<line x1="180.84842" y1="183.93097" x2="155.94354" y2="186.1098" stroke="red" stroke-width="1" /> 
<line x1="155.94354" y1="186.1098" x2="139.87384" y2="205.26091" stroke="red" stroke-width="1" /> 
<line x1="139.87384" y1="205.26091" x2="142.05278" y2="230.16577" stroke="red" stroke-width="1" /> 
<line x1="142.05278" y1="230.16577" x2="161.20396" y2="246.23538" stroke="red" stroke-width="1" /> 
<line x1="161.20396" y1="246.23538" x2="186.10883" y2="244.05632" stroke="red" stroke-width="1" /> 
<line x1="186.10883" y1="244.05632" x2="202.17834" y2="224.90508" stroke="red" stroke-width="1" /> 
<line x1="202.17834" y1="224.90508" x2="199.99918" y2="200.00023" stroke="red" stroke-width="1" /> 
<line x1="199.99918" y1="200.00023" x2="183.92947" y2="180.84914" stroke="red" stroke-width="1" /> 
<line x1="183.92947" y1="180.84914" x2="159.0246" y2="178.67032" stroke="red" stroke-width="1" /> 
<line x1="159.0246" y1="178.67032" x2="139.87357" y2="194.74011" stroke="red" stroke-width="1" /> 
<line x1="139.87357" y1="194.74011" x2="137.69485" y2="219.64499" stroke="red" stroke-width="1" /> 
<line x1="137.69485" y1="219.64499" x2="153.76443" y2="238.79619" stroke="red" stroke-width="1" /> 
<line x1="153.76443" y1="238.79619" x2="178.66933" y2="240.97478" stroke="red" stroke-width="1" /> 
<line x1="178.66933" y1="240.97478" x2="197.82045" y2="224.9051" stroke="red" stroke-width="1" /> 
<line x1="197.82045" y1="224.9051" x2="199.99931" y2="200.00024" stroke="red" stroke-width="1" /> 
<line x1="199.99931" y1="200.00024" x2="187.49918" y2="178.34969" stroke="red" stroke-width="1" /> 
<line x1="187.49918" y1="178.34969" x2="163.35098" y2="171.87941" stroke="red" stroke-width="1" /> 
<line x1="163.35098" y1="171.87941" x2="141.70029" y2="184.37932" stroke="red" stroke-width="1" /> 
<line x1="141.70029" y1="184.37932" x2="135.23012" y2="208.52754" stroke="red" stroke-width="1" /> 
<line x1="135.23012" y1="208.52754" x2="147.73012" y2="230.17818" stroke="red" stroke-width="1" /> 
<line x1="147.73012" y1="230.17818" x2="171.87828" y2="236.6486" stroke="red" stroke-width="1" /> 
<line x1="171.87828" y1="236.6486" x2="193.52885" y2="224.14851" stroke="red" stroke-width="1" /> 
<line x1="193.52885" y1="224.14851" x2="199.99918" y2="200.00032" stroke="red" stroke-width="1" /> 
<line x1="199.99918" y1="200.00032" x2="191.44876" y2="176.50798" stroke="red" stroke-width="1" /> 
<line x1="191.44876" y1="176.50798" x2="168.79108" y2="165.94249" stroke="red" stroke-width="1" /> 
<line x1="168.79108" y1="165.94249" x2="145.29877" y2="174.49301" stroke="red" stroke-width="1" /> 
<line x1="145.29877" y1="174.49301" x2="134.73338" y2="197.15074" stroke="red" stroke-width="1" /> 
<line x1="134.73338" y1="197.15074" x2="143.28401" y2="220.643" stroke="red" stroke-width="1" /> 
<line x1="143.28401" y1="220.643" x2="165.94179" y2="231.20828" stroke="red" stroke-width="1" /> 
<line x1="165.94179" y1="231.20828" x2="189.43402" y2="222.65755" stroke="red" stroke-width="1" /> 
<line x1="189.43402" y1="222.65755" x2="199.99954" y2="199.99988" stroke="red" stroke-width="1" /> 
<line x1="199.99954" y1="199.99988" x2="195.6583" y2="175.3797" stroke="red" stroke-width="1" /> 
<line x1="195.6583" y1="175.3797" x2="175.17943" y2="161.04037" stroke="red" stroke-width="1" /> 
<line x1="175.17943" y1="161.04037" x2="150.55927" y2="165.38174" stroke="red" stroke-width="1" /> 
<line x1="150.55927" y1="165.38174" x2="136.21971" y2="185.86044" stroke="red" stroke-width="1" /> 
<line x1="136.21971" y1="185.86044" x2="140.56119" y2="210.48059" stroke="red" stroke-width="1" /> 
<line x1="140.56119" y1="210.48059" x2="161.03996" y2="224.82005" stroke="red" stroke-width="1" /> 
<line x1="161.03996" y1="224.82005" x2="185.66016" y2="220.47885" stroke="red" stroke-width="1" /> 
<line x1="185.66016" y1="220.47885" x2="199.99953" y2="200.00002" stroke="red" stroke-width="1" /> 
<line x1="199.99953" y1="200.00002" x2="199.99934" y2="175.00002" stroke="red" stroke-width="1" /> 
<line x1="199.99934" y1="175.00002" x2="182.32178" y2="157.32225" stroke="red" stroke-width="1" /> 
<line x1="182.32178" y1="157.32225" x2="157.32178" y2="157.32254" stroke="red" stroke-width="1" /> 
<line x1="157.32178" y1="157.32254" x2="139.64409" y2="175.00018" stroke="red" stroke-width="1" /> 
<line x1="139.64409" y1="175.00018" x2="139.64412" y2="200.00018" stroke="red" stroke-width="1" /> 
<line x1="139.64412" y1="200.00018" x2="157.32184" y2="217.6778" stroke="red" stroke-width="1" /> 
<line x1="157.32184" y1="217.6778" x2="182.32184" y2="217.67766" stroke="red" stroke-width="1" /> 
<line x1="182.32184" y1="217.67766" x2="199.99937" y2="199.99985" stroke="red" stroke-width="1" /> 
<line x1="199.99937" y1="199.99985" x2="204.34064" y2="175.37967" stroke="red" stroke-width="1" /> 
<line x1="204.34064" y1="175.37967" x2="190.00092" y2="154.90108" stroke="red" stroke-width="1" /> 
<line x1="190.00092" y1="154.90108" x2="165.3807" y2="150.55992" stroke="red" stroke-width="1" /> 
<line x1="165.3807" y1="150.55992" x2="144.90196" y2="164.89941" stroke="red" stroke-width="1" /> 
<line x1="144.90196" y1="164.89941" x2="140.56091" y2="189.51964" stroke="red" stroke-width="1" /> 
<line x1="140.56091" y1="189.51964" x2="154.9005" y2="209.99832" stroke="red" stroke-width="1" /> 
<line x1="154.9005" y1="209.99832" x2="179.52068" y2="214.33963" stroke="red" stroke-width="1" /> 
<line x1="179.52068" y1="214.33963" x2="199.99951" y2="200.00026" stroke="red" stroke-width="1" /> 
<line x1="199.99951" y1="200.00026" x2="208.54994" y2="176.50792" stroke="red" stroke-width="1" /> 
<line x1="208.54994" y1="176.50792" x2="197.98436" y2="153.85028" stroke="red" stroke-width="1" /> 
<line x1="197.98436" y1="153.85028" x2="174.49197" y2="145.29996" stroke="red" stroke-width="1" /> 
<line x1="174.49197" y1="145.29996" x2="151.83438" y2="155.86563" stroke="red" stroke-width="1" /> 
<line x1="151.83438" y1="155.86563" x2="143.28416" y2="179.35805" stroke="red" stroke-width="1" /> 
<line x1="143.28416" y1="179.35805" x2="153.8496" y2="202.01575" stroke="red" stroke-width="1" /> 
<line x1="153.8496" y1="202.01575" x2="177.34204" y2="210.56586" stroke="red" stroke-width="1" /> 
<line x1="177.34204" y1="210.56586" x2="199.9997" y2="200.00032" stroke="red" stroke-width="1" /> 
<line x1="199.9997" y1="200.00032" x2="212.49951" y2="178.34958" stroke="red" stroke-width="1" /> 
<line x1="212.49951" y1="178.34958" x2="206.02914" y2="154.2014" stroke="red" stroke-width="1" /> 
<line x1="206.02914" y1="154.2014" x2="184.37834" y2="141.70168" stroke="red" stroke-width="1" /> 
<line x1="184.37834" y1="141.70168" x2="160.2302" y2="148.17215" stroke="red" stroke-width="1" /> 
<line x1="160.2302" y1="148.17215" x2="147.73024" y2="169.82281" stroke="red" stroke-width="1" /> 
<line x1="147.73024" y1="169.82281" x2="154.20082" y2="193.97093" stroke="red" stroke-width="1" /> 
<line x1="154.20082" y1="193.97093" x2="175.85153" y2="206.4708" stroke="red" stroke-width="1" /> 
<line x1="175.85153" y1="206.4708" x2="199.99962" y2="200.0001" stroke="red" stroke-width="1" /> 
<line x1="199.99962" y1="200.0001" x2="216.06905" y2="180.84877" stroke="red" stroke-width="1" /> 
<line x1="216.06905" y1="180.84877" x2="213.89014" y2="155.94391" stroke="red" stroke-width="1" /> 
<line x1="213.89014" y1="155.94391" x2="194.73898" y2="139.87428" stroke="red" stroke-width="1" /> 
<line x1="194.73898" y1="139.87428" x2="169.83412" y2="142.05331" stroke="red" stroke-width="1" /> 
<line x1="169.83412" y1="142.05331" x2="153.76428" y2="161.2043" stroke="red" stroke-width="1" /> 
<line x1="153.76428" y1="161.2043" x2="155.94342" y2="186.10915" stroke="red" stroke-width="1" /> 
<line x1="155.94342" y1="186.10915" x2="175.09473" y2="202.1786" stroke="red" stroke-width="1" /> 
<line x1="175.09473" y1="202.1786" x2="199.99956" y2="199.99936" stroke="red" stroke-width="1" /> 
<line x1="199.99956" y1="199.99936" x2="219.15036" y2="183.92929" stroke="red" stroke-width="1" /> 
<line x1="219.15036" y1="183.92929" x2="221.3291" y2="159.02441" stroke="red" stroke-width="1" /> 
<line x1="221.3291" y1="159.02441" x2="205.25925" y2="139.87344" stroke="red" stroke-width="1" /> 
<line x1="205.25925" y1="139.87344" x2="180.35435" y2="137.69482" stroke="red" stroke-width="1" /> 
<line x1="180.35435" y1="137.69482" x2="161.20322" y2="153.76447" stroke="red" stroke-width="1" /> 
<line x1="161.20322" y1="153.76447" x2="159.02432" y2="178.66933" stroke="red" stroke-width="1" /> 
<line x1="159.02432" y1="178.66933" x2="175.09406" y2="197.8204" stroke="red" stroke-width="1" /> 
<line x1="175.09406" y1="197.8204" x2="199.99896" y2="199.99881" stroke="red" stroke-width="1" /> 
<line x1="199.99896" y1="199.99881" x2="221.64967" y2="187.49893" stroke="red" stroke-width="1" /> 
<line x1="221.64967" y1="187.49893" x2="228.12024" y2="163.35081" stroke="red" stroke-width="1" /> 
<line x1="228.12024" y1="163.35081" x2="215.61993" y2="141.70035" stroke="red" stroke-width="1" /> 
<line x1="215.61993" y1="141.70035" x2="191.47168" y2="135.23027" stroke="red" stroke-width="1" /> 
<line x1="191.47168" y1="135.23027" x2="169.82109" y2="147.73035" stroke="red" stroke-width="1" /> 
<line x1="169.82109" y1="147.73035" x2="163.35075" y2="171.87852" stroke="red" stroke-width="1" /> 
<line x1="163.35075" y1="171.87852" x2="175.85092" y2="193.52907" stroke="red" stroke-width="1" /> 
<line x1="175.85092" y1="193.52907" x2="199.99904" y2="199.99968" stroke="red" stroke-width="1" /> 
<line x1="199.99904" y1="199.99968" x2="223.49136" y2="191.44919" stroke="red" stroke-width="1" /> 
<line x1="223.49136" y1="191.44919" x2="234.05678" y2="168.79147" stroke="red" stroke-width="1" /> 
<line x1="234.05678" y1="168.79147" x2="225.50618" y2="145.2992" stroke="red" stroke-width="1" /> 
<line x1="225.50618" y1="145.2992" x2="202.84857" y2="134.73354" stroke="red" stroke-width="1" /> 
<line x1="202.84857" y1="134.73354" x2="179.35632" y2="143.28424" stroke="red" stroke-width="1" /> 
<line x1="179.35632" y1="143.28424" x2="168.7911" y2="165.94205" stroke="red" stroke-width="1" /> 
<line x1="168.7911" y1="165.94205" x2="177.34192" y2="189.43425" stroke="red" stroke-width="1" /> 
<line x1="177.34192" y1="189.43425" x2="199.99962" y2="199.99971" stroke="red" stroke-width="1" /> 
<line x1="199.99962" y1="199.99971" x2="224.61972" y2="195.658" stroke="red" stroke-width="1" /> 
<line x1="224.61972" y1="195.658" x2="238.95898" y2="175.1791" stroke="red" stroke-width="1" /> 
<line x1="238.95898" y1="175.1791" x2="234.61754" y2="150.55894" stroke="red" stroke-width="1" /> 
<line x1="234.61754" y1="150.55894" x2="214.13878" y2="136.21947" stroke="red" stroke-width="1" /> 
<line x1="214.13878" y1="136.21947" x2="189.51859" y2="140.56064" stroke="red" stroke-width="1" /> 
<line x1="189.51859" y1="140.56064" x2="175.1792" y2="161.03946" stroke="red" stroke-width="1" /> 
<line x1="175.1792" y1="161.03946" x2="179.52086" y2="185.65958" stroke="red" stroke-width="1" /> 
<line x1="179.52086" y1="185.65958" x2="199.99974" y2="199.99887" stroke="red" stroke-width="1" /> 
<line x1="199.99974" y1="199.99887" x2="224.99974" y2="199.99898" stroke="red" stroke-width="1" /> 
<line x1="224.99974" y1="199.99898" x2="242.67719" y2="182.32108" stroke="red" stroke-width="1" /> 
<line x1="242.67719" y1="182.32108" x2="242.6768" y2="157.32108" stroke="red" stroke-width="1" /> 
<line x1="242.6768" y1="157.32108" x2="224.99883" y2="139.6437" stroke="red" stroke-width="1" /> 
<line x1="224.99883" y1="139.6437" x2="199.99883" y2="139.64381" stroke="red" stroke-width="1" /> 
<line x1="199.99883" y1="139.64381" x2="182.32127" y2="157.3216" stroke="red" stroke-width="1" /> 
<line x1="182.32127" y1="157.3216" x2="182.3211" y2="182.3216" stroke="red" stroke-width="1" /> 
<line x1="182.3211" y1="182.3216" x2="199.9987" y2="199.99934" stroke="red" stroke-width="1" /> 
</svg>